solid SOP-4L_TC-M
facet normal 0 0 -1
  outer loop
    vertex -104.083960399502 50 91
    vertex -96.6545119004472 51.4778091892722 91
    vertex -96.5089603995017 50 91
  endloop
endfacet
facet normal 0 0 -1
  outer loop
    vertex -104.083960399502 50 91
    vertex -97.0855729407287 52.8988270001656 91
    vertex -96.6545119004472 51.4778091892722 91
  endloop
endfacet
facet normal 0 0 -1
  outer loop
    vertex -104.083960399502 50 91
    vertex -97.7855780863099 54.2084445151235 91
    vertex -97.0855729407287 52.8988270001656 91
  endloop
endfacet
facet normal 0 0 -1
  outer loop
    vertex -104.083960399502 50 91
    vertex -98.7276265320136 55.3563338674881 91
    vertex -97.7855780863099 54.2084445151235 91
  endloop
endfacet
facet normal 0 0 -1
  outer loop
    vertex -104.083960399502 50 91
    vertex -99.8755158843782 56.2983823131918 91
    vertex -98.7276265320136 55.3563338674881 91
  endloop
endfacet
facet normal 0 0 -1
  outer loop
    vertex -104.083960399502 50 91
    vertex -101.185133399336 56.998387458773 91
    vertex -99.8755158843782 56.2983823131918 91
  endloop
endfacet
facet normal 0 0 -1
  outer loop
    vertex -104.083960399502 50 91
    vertex -102.606151210229 57.4294484990545 91
    vertex -101.185133399336 56.998387458773 91
  endloop
endfacet
facet normal 0 0 -1
  outer loop
    vertex -104.083960399502 50 91
    vertex -104.083960399502 57.575 91
    vertex -102.606151210229 57.4294484990545 91
  endloop
endfacet
facet normal 0 0 -1
  outer loop
    vertex -104.083960399502 50 91
    vertex -105.561769588774 57.4294484990545 91
    vertex -104.083960399502 57.575 91
  endloop
endfacet
facet normal 0 0 -1
  outer loop
    vertex -104.083960399502 50 91
    vertex -106.982787399667 56.998387458773 91
    vertex -105.561769588774 57.4294484990545 91
  endloop
endfacet
facet normal 0 0 -1
  outer loop
    vertex -104.083960399502 50 91
    vertex -108.292404914625 56.2983823131918 91
    vertex -106.982787399667 56.998387458773 91
  endloop
endfacet
facet normal 0 0 -1
  outer loop
    vertex -104.083960399502 50 91
    vertex -109.44029426699 55.3563338674881 91
    vertex -108.292404914625 56.2983823131918 91
  endloop
endfacet
facet normal 0 0 -1
  outer loop
    vertex -104.083960399502 50 91
    vertex -110.382342712693 54.2084445151235 91
    vertex -109.44029426699 55.3563338674881 91
  endloop
endfacet
facet normal 0 0 -1
  outer loop
    vertex -104.083960399502 50 91
    vertex -111.082347858275 52.8988270001656 91
    vertex -110.382342712693 54.2084445151235 91
  endloop
endfacet
facet normal 0 0 -1
  outer loop
    vertex -104.083960399502 50 91
    vertex -111.513408898556 51.4778091892722 91
    vertex -111.082347858275 52.8988270001656 91
  endloop
endfacet
facet normal 0 0 -1
  outer loop
    vertex -104.083960399502 50 91
    vertex -111.658960399502 50 91
    vertex -111.513408898556 51.4778091892722 91
  endloop
endfacet
facet normal 0 0 -1
  outer loop
    vertex -104.083960399502 50 91
    vertex -111.513408898556 48.5221908107278 91
    vertex -111.658960399502 50 91
  endloop
endfacet
facet normal 0 0 -1
  outer loop
    vertex -104.083960399502 50 91
    vertex -111.082347858275 47.1011729998344 91
    vertex -111.513408898556 48.5221908107278 91
  endloop
endfacet
facet normal 0 0 -1
  outer loop
    vertex -104.083960399502 50 91
    vertex -110.382342712693 45.7915554848765 91
    vertex -111.082347858275 47.1011729998344 91
  endloop
endfacet
facet normal 0 0 -1
  outer loop
    vertex -104.083960399502 50 91
    vertex -109.44029426699 44.6436661325119 91
    vertex -110.382342712693 45.7915554848765 91
  endloop
endfacet
facet normal 0 0 -1
  outer loop
    vertex -104.083960399502 50 91
    vertex -108.292404914625 43.7016176868082 91
    vertex -109.44029426699 44.6436661325119 91
  endloop
endfacet
facet normal 0 0 -1
  outer loop
    vertex -104.083960399502 50 91
    vertex -106.982787399667 43.001612541227 91
    vertex -108.292404914625 43.7016176868082 91
  endloop
endfacet
facet normal 0 0 -1
  outer loop
    vertex -104.083960399502 50 91
    vertex -105.561769588774 42.5705515009455 91
    vertex -106.982787399667 43.001612541227 91
  endloop
endfacet
facet normal 0 0 -1
  outer loop
    vertex -104.083960399502 50 91
    vertex -104.083960399502 42.425 91
    vertex -105.561769588774 42.5705515009455 91
  endloop
endfacet
facet normal 0 0 -1
  outer loop
    vertex -104.083960399502 50 91
    vertex -102.606151210229 42.5705515009455 91
    vertex -104.083960399502 42.425 91
  endloop
endfacet
facet normal 0 0 -1
  outer loop
    vertex -104.083960399502 50 91
    vertex -101.185133399336 43.001612541227 91
    vertex -102.606151210229 42.5705515009455 91
  endloop
endfacet
facet normal 0 0 -1
  outer loop
    vertex -104.083960399502 50 91
    vertex -99.8755158843782 43.7016176868082 91
    vertex -101.185133399336 43.001612541227 91
  endloop
endfacet
facet normal 0 0 -1
  outer loop
    vertex -104.083960399502 50 91
    vertex -98.7276265320136 44.6436661325119 91
    vertex -99.8755158843782 43.7016176868082 91
  endloop
endfacet
facet normal 0 0 -1
  outer loop
    vertex -104.083960399502 50 91
    vertex -97.7855780863099 45.7915554848765 91
    vertex -98.7276265320136 44.6436661325119 91
  endloop
endfacet
facet normal 0 0 -1
  outer loop
    vertex -104.083960399502 50 91
    vertex -97.0855729407287 47.1011729998344 91
    vertex -97.7855780863099 45.7915554848765 91
  endloop
endfacet
facet normal 0 0 -1
  outer loop
    vertex -104.083960399502 50 91
    vertex -96.6545119004472 48.5221908107278 91
    vertex -97.0855729407287 47.1011729998344 91
  endloop
endfacet
facet normal 0 0 -1
  outer loop
    vertex -104.083960399502 50 91
    vertex -96.5089603995017 50 91
    vertex -96.6545119004472 48.5221908107278 91
  endloop
endfacet
facet normal 0 0 1
  outer loop
    vertex -104.083960399502 50 91.1
    vertex -96.5089603995017 50 91.1
    vertex -96.6545119004472 51.4778091892722 91.1
  endloop
endfacet
facet normal 0 0 1
  outer loop
    vertex -104.083960399502 50 91.1
    vertex -96.6545119004472 51.4778091892722 91.1
    vertex -97.0855729407287 52.8988270001656 91.1
  endloop
endfacet
facet normal 0 0 1
  outer loop
    vertex -104.083960399502 50 91.1
    vertex -97.0855729407287 52.8988270001656 91.1
    vertex -97.7855780863099 54.2084445151235 91.1
  endloop
endfacet
facet normal 0 0 1
  outer loop
    vertex -104.083960399502 50 91.1
    vertex -97.7855780863099 54.2084445151235 91.1
    vertex -98.7276265320136 55.3563338674881 91.1
  endloop
endfacet
facet normal 0 0 1
  outer loop
    vertex -104.083960399502 50 91.1
    vertex -98.7276265320136 55.3563338674881 91.1
    vertex -99.8755158843782 56.2983823131918 91.1
  endloop
endfacet
facet normal 0 0 1
  outer loop
    vertex -104.083960399502 50 91.1
    vertex -99.8755158843782 56.2983823131918 91.1
    vertex -101.185133399336 56.998387458773 91.1
  endloop
endfacet
facet normal 0 0 1
  outer loop
    vertex -104.083960399502 50 91.1
    vertex -101.185133399336 56.998387458773 91.1
    vertex -102.606151210229 57.4294484990545 91.1
  endloop
endfacet
facet normal 0 0 1
  outer loop
    vertex -104.083960399502 50 91.1
    vertex -102.606151210229 57.4294484990545 91.1
    vertex -104.083960399502 57.575 91.1
  endloop
endfacet
facet normal 0 0 1
  outer loop
    vertex -104.083960399502 50 91.1
    vertex -104.083960399502 57.575 91.1
    vertex -105.561769588774 57.4294484990545 91.1
  endloop
endfacet
facet normal 0 0 1
  outer loop
    vertex -104.083960399502 50 91.1
    vertex -105.561769588774 57.4294484990545 91.1
    vertex -106.982787399667 56.998387458773 91.1
  endloop
endfacet
facet normal 0 0 1
  outer loop
    vertex -104.083960399502 50 91.1
    vertex -106.982787399667 56.998387458773 91.1
    vertex -108.292404914625 56.2983823131918 91.1
  endloop
endfacet
facet normal 0 0 1
  outer loop
    vertex -104.083960399502 50 91.1
    vertex -108.292404914625 56.2983823131918 91.1
    vertex -109.44029426699 55.3563338674881 91.1
  endloop
endfacet
facet normal 0 0 1
  outer loop
    vertex -104.083960399502 50 91.1
    vertex -109.44029426699 55.3563338674881 91.1
    vertex -110.382342712693 54.2084445151235 91.1
  endloop
endfacet
facet normal 0 0 1
  outer loop
    vertex -104.083960399502 50 91.1
    vertex -110.382342712693 54.2084445151235 91.1
    vertex -111.082347858275 52.8988270001656 91.1
  endloop
endfacet
facet normal 0 0 1
  outer loop
    vertex -104.083960399502 50 91.1
    vertex -111.082347858275 52.8988270001656 91.1
    vertex -111.513408898556 51.4778091892722 91.1
  endloop
endfacet
facet normal 0 0 1
  outer loop
    vertex -104.083960399502 50 91.1
    vertex -111.513408898556 51.4778091892722 91.1
    vertex -111.658960399502 50 91.1
  endloop
endfacet
facet normal 0 0 1
  outer loop
    vertex -104.083960399502 50 91.1
    vertex -111.658960399502 50 91.1
    vertex -111.513408898556 48.5221908107278 91.1
  endloop
endfacet
facet normal 0 0 1
  outer loop
    vertex -104.083960399502 50 91.1
    vertex -111.513408898556 48.5221908107278 91.1
    vertex -111.082347858275 47.1011729998344 91.1
  endloop
endfacet
facet normal 0 0 1
  outer loop
    vertex -104.083960399502 50 91.1
    vertex -111.082347858275 47.1011729998344 91.1
    vertex -110.382342712693 45.7915554848765 91.1
  endloop
endfacet
facet normal 0 0 1
  outer loop
    vertex -104.083960399502 50 91.1
    vertex -110.382342712693 45.7915554848765 91.1
    vertex -109.44029426699 44.6436661325119 91.1
  endloop
endfacet
facet normal 0 0 1
  outer loop
    vertex -104.083960399502 50 91.1
    vertex -109.44029426699 44.6436661325119 91.1
    vertex -108.292404914625 43.7016176868082 91.1
  endloop
endfacet
facet normal 0 0 1
  outer loop
    vertex -104.083960399502 50 91.1
    vertex -108.292404914625 43.7016176868082 91.1
    vertex -106.982787399667 43.001612541227 91.1
  endloop
endfacet
facet normal 0 0 1
  outer loop
    vertex -104.083960399502 50 91.1
    vertex -106.982787399667 43.001612541227 91.1
    vertex -105.561769588774 42.5705515009455 91.1
  endloop
endfacet
facet normal 0 0 1
  outer loop
    vertex -104.083960399502 50 91.1
    vertex -105.561769588774 42.5705515009455 91.1
    vertex -104.083960399502 42.425 91.1
  endloop
endfacet
facet normal 0 0 1
  outer loop
    vertex -104.083960399502 50 91.1
    vertex -104.083960399502 42.425 91.1
    vertex -102.606151210229 42.5705515009455 91.1
  endloop
endfacet
facet normal 0 0 1
  outer loop
    vertex -104.083960399502 50 91.1
    vertex -102.606151210229 42.5705515009455 91.1
    vertex -101.185133399336 43.001612541227 91.1
  endloop
endfacet
facet normal 0 0 1
  outer loop
    vertex -104.083960399502 50 91.1
    vertex -101.185133399336 43.001612541227 91.1
    vertex -99.8755158843782 43.7016176868082 91.1
  endloop
endfacet
facet normal 0 0 1
  outer loop
    vertex -104.083960399502 50 91.1
    vertex -99.8755158843782 43.7016176868082 91.1
    vertex -98.7276265320136 44.6436661325119 91.1
  endloop
endfacet
facet normal 0 0 1
  outer loop
    vertex -104.083960399502 50 91.1
    vertex -98.7276265320136 44.6436661325119 91.1
    vertex -97.7855780863099 45.7915554848765 91.1
  endloop
endfacet
facet normal 0 0 1
  outer loop
    vertex -104.083960399502 50 91.1
    vertex -97.7855780863099 45.7915554848765 91.1
    vertex -97.0855729407287 47.1011729998344 91.1
  endloop
endfacet
facet normal 0 0 1
  outer loop
    vertex -104.083960399502 50 91.1
    vertex -97.0855729407287 47.1011729998344 91.1
    vertex -96.6545119004472 48.5221908107278 91.1
  endloop
endfacet
facet normal 0 0 1
  outer loop
    vertex -104.083960399502 50 91.1
    vertex -96.6545119004472 48.5221908107278 91.1
    vertex -96.5089603995017 50 91.1
  endloop
endfacet
facet normal .995184726672199 .09801714032954 0
  outer loop
    vertex -96.5089603995017 50 91
    vertex -96.6545119004472 51.4778091892722 91.1
    vertex -96.5089603995017 50 91.1
  endloop
endfacet
facet normal .956940335732207 .29028467725447 0
  outer loop
    vertex -96.6545119004472 51.4778091892722 91
    vertex -97.0855729407287 52.8988270001656 91.1
    vertex -96.6545119004472 51.4778091892722 91.1
  endloop
endfacet
facet normal .881921264348355 .471396736825998 0
  outer loop
    vertex -97.0855729407287 52.8988270001656 91
    vertex -97.7855780863099 54.2084445151235 91.1
    vertex -97.0855729407287 52.8988270001656 91.1
  endloop
endfacet
facet normal .773010453362725 .63439328416366 0
  outer loop
    vertex -97.7855780863099 54.2084445151235 91
    vertex -98.7276265320136 55.3563338674881 91.1
    vertex -97.7855780863099 54.2084445151235 91.1
  endloop
endfacet
facet normal .634393284163658 .773010453362727 0
  outer loop
    vertex -98.7276265320136 55.3563338674881 91
    vertex -99.8755158843782 56.2983823131918 91.1
    vertex -98.7276265320136 55.3563338674881 91.1
  endloop
endfacet
facet normal .471396736826028 .881921264348339 0
  outer loop
    vertex -99.8755158843782 56.2983823131918 91
    vertex -101.185133399336 56.998387458773 91.1
    vertex -99.8755158843782 56.2983823131918 91.1
  endloop
endfacet
facet normal .290284677254549 .956940335732183 0
  outer loop
    vertex -101.185133399336 56.998387458773 91
    vertex -102.606151210229 57.4294484990545 91.1
    vertex -101.185133399336 56.998387458773 91.1
  endloop
endfacet
facet normal 9.80171403294873E-02 .995184726672204 0
  outer loop
    vertex -102.606151210229 57.4294484990545 91
    vertex -104.083960399502 57.575 91.1
    vertex -102.606151210229 57.4294484990545 91.1
  endloop
endfacet
facet normal -9.80171403295535E-02 .995184726672197 0
  outer loop
    vertex -104.083960399502 57.575 91
    vertex -105.561769588774 57.4294484990545 91.1
    vertex -104.083960399502 57.575 91.1
  endloop
endfacet
facet normal -.290284677254549 .956940335732183 0
  outer loop
    vertex -105.561769588774 57.4294484990545 91
    vertex -106.982787399667 56.998387458773 91.1
    vertex -105.561769588774 57.4294484990545 91.1
  endloop
endfacet
facet normal -.471396736825973 .881921264348368 0
  outer loop
    vertex -106.982787399667 56.998387458773 91
    vertex -108.292404914625 56.2983823131918 91.1
    vertex -106.982787399667 56.998387458773 91.1
  endloop
endfacet
facet normal -.634393284163526 .773010453362835 0
  outer loop
    vertex -108.292404914625 56.2983823131918 91
    vertex -109.44029426699 55.3563338674881 91.1
    vertex -108.292404914625 56.2983823131918 91.1
  endloop
endfacet
facet normal -.773010453362955 .63439328416338 0
  outer loop
    vertex -109.44029426699 55.3563338674881 91
    vertex -110.382342712693 54.2084445151235 91.1
    vertex -109.44029426699 55.3563338674881 91.1
  endloop
endfacet
facet normal -.881921264348132 .471396736826415 0
  outer loop
    vertex -110.382342712693 54.2084445151235 91
    vertex -111.082347858275 52.8988270001656 91.1
    vertex -110.382342712693 54.2084445151235 91.1
  endloop
endfacet
facet normal -.9569403357323 .290284677254163 0
  outer loop
    vertex -111.082347858275 52.8988270001656 91
    vertex -111.513408898556 51.4778091892722 91.1
    vertex -111.082347858275 52.8988270001656 91.1
  endloop
endfacet
facet normal -.995184726672166 9.80171403298812E-02 0
  outer loop
    vertex -111.513408898556 51.4778091892722 91
    vertex -111.658960399502 50 91.1
    vertex -111.513408898556 51.4778091892722 91.1
  endloop
endfacet
facet normal -.995184726672166 -9.80171403298812E-02 0
  outer loop
    vertex -111.658960399502 50 91
    vertex -111.513408898556 48.5221908107278 91.1
    vertex -111.658960399502 50 91.1
  endloop
endfacet
facet normal -.9569403357323 -.290284677254163 0
  outer loop
    vertex -111.513408898556 48.5221908107278 91
    vertex -111.082347858275 47.1011729998344 91.1
    vertex -111.513408898556 48.5221908107278 91.1
  endloop
endfacet
facet normal -.881921264348132 -.471396736826415 0
  outer loop
    vertex -111.082347858275 47.1011729998344 91
    vertex -110.382342712693 45.7915554848765 91.1
    vertex -111.082347858275 47.1011729998344 91.1
  endloop
endfacet
facet normal -.773010453362955 -.63439328416338 0
  outer loop
    vertex -110.382342712693 45.7915554848765 91
    vertex -109.44029426699 44.6436661325119 91.1
    vertex -110.382342712693 45.7915554848765 91.1
  endloop
endfacet
facet normal -.634393284163526 -.773010453362835 0
  outer loop
    vertex -109.44029426699 44.6436661325119 91
    vertex -108.292404914625 43.7016176868082 91.1
    vertex -109.44029426699 44.6436661325119 91.1
  endloop
endfacet
facet normal -.471396736825973 -.881921264348368 0
  outer loop
    vertex -108.292404914625 43.7016176868082 91
    vertex -106.982787399667 43.001612541227 91.1
    vertex -108.292404914625 43.7016176868082 91.1
  endloop
endfacet
facet normal -.290284677254549 -.956940335732183 0
  outer loop
    vertex -106.982787399667 43.001612541227 91
    vertex -105.561769588774 42.5705515009455 91.1
    vertex -106.982787399667 43.001612541227 91.1
  endloop
endfacet
facet normal -9.80171403295535E-02 -.995184726672197 0
  outer loop
    vertex -105.561769588774 42.5705515009455 91
    vertex -104.083960399502 42.425 91.1
    vertex -105.561769588774 42.5705515009455 91.1
  endloop
endfacet
facet normal 9.80171403294873E-02 -.995184726672204 0
  outer loop
    vertex -104.083960399502 42.425 91
    vertex -102.606151210229 42.5705515009455 91.1
    vertex -104.083960399502 42.425 91.1
  endloop
endfacet
facet normal .290284677254549 -.956940335732183 0
  outer loop
    vertex -102.606151210229 42.5705515009455 91
    vertex -101.185133399336 43.001612541227 91.1
    vertex -102.606151210229 42.5705515009455 91.1
  endloop
endfacet
facet normal .471396736826028 -.881921264348339 0
  outer loop
    vertex -101.185133399336 43.001612541227 91
    vertex -99.8755158843782 43.7016176868082 91.1
    vertex -101.185133399336 43.001612541227 91.1
  endloop
endfacet
facet normal .634393284163658 -.773010453362727 0
  outer loop
    vertex -99.8755158843782 43.7016176868082 91
    vertex -98.7276265320136 44.6436661325119 91.1
    vertex -99.8755158843782 43.7016176868082 91.1
  endloop
endfacet
facet normal .773010453362725 -.63439328416366 0
  outer loop
    vertex -98.7276265320136 44.6436661325119 91
    vertex -97.7855780863099 45.7915554848765 91.1
    vertex -98.7276265320136 44.6436661325119 91.1
  endloop
endfacet
facet normal .881921264348355 -.471396736825998 0
  outer loop
    vertex -97.7855780863099 45.7915554848765 91
    vertex -97.0855729407287 47.1011729998344 91.1
    vertex -97.7855780863099 45.7915554848765 91.1
  endloop
endfacet
facet normal .956940335732207 -.29028467725447 0
  outer loop
    vertex -97.0855729407287 47.1011729998344 91
    vertex -96.6545119004472 48.5221908107278 91.1
    vertex -97.0855729407287 47.1011729998344 91.1
  endloop
endfacet
facet normal .995184726672199 -.09801714032954 0
  outer loop
    vertex -96.6545119004472 48.5221908107278 91
    vertex -96.5089603995017 50 91.1
    vertex -96.6545119004472 48.5221908107278 91.1
  endloop
endfacet
facet normal .995184726672199 .09801714032954 0
  outer loop
    vertex -96.6545119004472 51.4778091892722 91
    vertex -96.6545119004472 51.4778091892722 91.1
    vertex -96.5089603995017 50 91
  endloop
endfacet
facet normal .956940335732207 .29028467725447 0
  outer loop
    vertex -97.0855729407287 52.8988270001656 91
    vertex -97.0855729407287 52.8988270001656 91.1
    vertex -96.6545119004472 51.4778091892722 91
  endloop
endfacet
facet normal .881921264348355 .471396736825998 0
  outer loop
    vertex -97.7855780863099 54.2084445151235 91
    vertex -97.7855780863099 54.2084445151235 91.1
    vertex -97.0855729407287 52.8988270001656 91
  endloop
endfacet
facet normal .773010453362725 .63439328416366 0
  outer loop
    vertex -98.7276265320136 55.3563338674881 91
    vertex -98.7276265320136 55.3563338674881 91.1
    vertex -97.7855780863099 54.2084445151235 91
  endloop
endfacet
facet normal .634393284163658 .773010453362727 0
  outer loop
    vertex -99.8755158843782 56.2983823131918 91
    vertex -99.8755158843782 56.2983823131918 91.1
    vertex -98.7276265320136 55.3563338674881 91
  endloop
endfacet
facet normal .471396736826028 .881921264348339 0
  outer loop
    vertex -101.185133399336 56.998387458773 91
    vertex -101.185133399336 56.998387458773 91.1
    vertex -99.8755158843782 56.2983823131918 91
  endloop
endfacet
facet normal .290284677254549 .956940335732183 0
  outer loop
    vertex -102.606151210229 57.4294484990545 91
    vertex -102.606151210229 57.4294484990545 91.1
    vertex -101.185133399336 56.998387458773 91
  endloop
endfacet
facet normal 9.80171403294873E-02 .995184726672204 0
  outer loop
    vertex -104.083960399502 57.575 91
    vertex -104.083960399502 57.575 91.1
    vertex -102.606151210229 57.4294484990545 91
  endloop
endfacet
facet normal -9.80171403295535E-02 .995184726672197 0
  outer loop
    vertex -105.561769588774 57.4294484990545 91
    vertex -105.561769588774 57.4294484990545 91.1
    vertex -104.083960399502 57.575 91
  endloop
endfacet
facet normal -.290284677254549 .956940335732183 0
  outer loop
    vertex -106.982787399667 56.998387458773 91
    vertex -106.982787399667 56.998387458773 91.1
    vertex -105.561769588774 57.4294484990545 91
  endloop
endfacet
facet normal -.471396736825973 .881921264348368 0
  outer loop
    vertex -108.292404914625 56.2983823131918 91
    vertex -108.292404914625 56.2983823131918 91.1
    vertex -106.982787399667 56.998387458773 91
  endloop
endfacet
facet normal -.634393284163526 .773010453362835 0
  outer loop
    vertex -109.44029426699 55.3563338674881 91
    vertex -109.44029426699 55.3563338674881 91.1
    vertex -108.292404914625 56.2983823131918 91
  endloop
endfacet
facet normal -.773010453362955 .63439328416338 0
  outer loop
    vertex -110.382342712693 54.2084445151235 91
    vertex -110.382342712693 54.2084445151235 91.1
    vertex -109.44029426699 55.3563338674881 91
  endloop
endfacet
facet normal -.881921264348132 .471396736826415 0
  outer loop
    vertex -111.082347858275 52.8988270001656 91
    vertex -111.082347858275 52.8988270001656 91.1
    vertex -110.382342712693 54.2084445151235 91
  endloop
endfacet
facet normal -.9569403357323 .290284677254163 0
  outer loop
    vertex -111.513408898556 51.4778091892722 91
    vertex -111.513408898556 51.4778091892722 91.1
    vertex -111.082347858275 52.8988270001656 91
  endloop
endfacet
facet normal -.995184726672166 9.80171403298812E-02 0
  outer loop
    vertex -111.658960399502 50 91
    vertex -111.658960399502 50 91.1
    vertex -111.513408898556 51.4778091892722 91
  endloop
endfacet
facet normal -.995184726672166 -9.80171403298812E-02 0
  outer loop
    vertex -111.513408898556 48.5221908107278 91
    vertex -111.513408898556 48.5221908107278 91.1
    vertex -111.658960399502 50 91
  endloop
endfacet
facet normal -.9569403357323 -.290284677254163 0
  outer loop
    vertex -111.082347858275 47.1011729998344 91
    vertex -111.082347858275 47.1011729998344 91.1
    vertex -111.513408898556 48.5221908107278 91
  endloop
endfacet
facet normal -.881921264348132 -.471396736826415 0
  outer loop
    vertex -110.382342712693 45.7915554848765 91
    vertex -110.382342712693 45.7915554848765 91.1
    vertex -111.082347858275 47.1011729998344 91
  endloop
endfacet
facet normal -.773010453362955 -.63439328416338 0
  outer loop
    vertex -109.44029426699 44.6436661325119 91
    vertex -109.44029426699 44.6436661325119 91.1
    vertex -110.382342712693 45.7915554848765 91
  endloop
endfacet
facet normal -.634393284163526 -.773010453362835 0
  outer loop
    vertex -108.292404914625 43.7016176868082 91
    vertex -108.292404914625 43.7016176868082 91.1
    vertex -109.44029426699 44.6436661325119 91
  endloop
endfacet
facet normal -.471396736825973 -.881921264348368 0
  outer loop
    vertex -106.982787399667 43.001612541227 91
    vertex -106.982787399667 43.001612541227 91.1
    vertex -108.292404914625 43.7016176868082 91
  endloop
endfacet
facet normal -.290284677254549 -.956940335732183 0
  outer loop
    vertex -105.561769588774 42.5705515009455 91
    vertex -105.561769588774 42.5705515009455 91.1
    vertex -106.982787399667 43.001612541227 91
  endloop
endfacet
facet normal -9.80171403295535E-02 -.995184726672197 0
  outer loop
    vertex -104.083960399502 42.425 91
    vertex -104.083960399502 42.425 91.1
    vertex -105.561769588774 42.5705515009455 91
  endloop
endfacet
facet normal 9.80171403294873E-02 -.995184726672204 0
  outer loop
    vertex -102.606151210229 42.5705515009455 91
    vertex -102.606151210229 42.5705515009455 91.1
    vertex -104.083960399502 42.425 91
  endloop
endfacet
facet normal .290284677254549 -.956940335732183 0
  outer loop
    vertex -101.185133399336 43.001612541227 91
    vertex -101.185133399336 43.001612541227 91.1
    vertex -102.606151210229 42.5705515009455 91
  endloop
endfacet
facet normal .471396736826028 -.881921264348339 0
  outer loop
    vertex -99.8755158843782 43.7016176868082 91
    vertex -99.8755158843782 43.7016176868082 91.1
    vertex -101.185133399336 43.001612541227 91
  endloop
endfacet
facet normal .634393284163658 -.773010453362727 0
  outer loop
    vertex -98.7276265320136 44.6436661325119 91
    vertex -98.7276265320136 44.6436661325119 91.1
    vertex -99.8755158843782 43.7016176868082 91
  endloop
endfacet
facet normal .773010453362725 -.63439328416366 0
  outer loop
    vertex -97.7855780863099 45.7915554848765 91
    vertex -97.7855780863099 45.7915554848765 91.1
    vertex -98.7276265320136 44.6436661325119 91
  endloop
endfacet
facet normal .881921264348355 -.471396736825998 0
  outer loop
    vertex -97.0855729407287 47.1011729998344 91
    vertex -97.0855729407287 47.1011729998344 91.1
    vertex -97.7855780863099 45.7915554848765 91
  endloop
endfacet
facet normal .956940335732207 -.29028467725447 0
  outer loop
    vertex -96.6545119004472 48.5221908107278 91
    vertex -96.6545119004472 48.5221908107278 91.1
    vertex -97.0855729407287 47.1011729998344 91
  endloop
endfacet
facet normal .995184726672199 -.09801714032954 0
  outer loop
    vertex -96.5089603995017 50 91
    vertex -96.5089603995017 50 91.1
    vertex -96.6545119004472 48.5221908107278 91
  endloop
endfacet
facet normal 0 0 1
  outer loop
    vertex 134.806578661242 77.0573481614675 91
    vertex 12 77.0573481614675 91
    vertex 134.806578661242 -77.0573481614675 91
  endloop
endfacet
facet normal 0 0 1
  outer loop
    vertex 12 77.0573481614675 91
    vertex 11.7694233648388 74.716264297274 91
    vertex 134.806578661242 -77.0573481614675 91
  endloop
endfacet
facet normal 0 0 1
  outer loop
    vertex 11.7694233648388 74.716264297274 91
    vertex 11.0865543901354 72.4651469730864 91
    vertex 134.806578661242 -77.0573481614675 91
  endloop
endfacet
facet normal 0 0 1
  outer loop
    vertex 11.0865543901354 72.4651469730864 91
    vertex 9.97763534763054 70.3905053652323 91
    vertex 134.806578661242 -77.0573481614675 91
  endloop
endfacet
facet normal 0 0 1
  outer loop
    vertex 9.97763534763054 70.3905053652323 91
    vertex 8.48528137423857 68.5720667872289 91
    vertex 134.806578661242 -77.0573481614675 91
  endloop
endfacet
facet normal 0 0 1
  outer loop
    vertex 8.48528137423857 68.5720667872289 91
    vertex 6.66684279623523 67.079712813837 91
    vertex 134.806578661242 -77.0573481614675 91
  endloop
endfacet
facet normal 0 0 1
  outer loop
    vertex 6.66684279623523 67.079712813837 91
    vertex 4.59220118838108 65.9707937713321 91
    vertex 134.806578661242 -77.0573481614675 91
  endloop
endfacet
facet normal 0 0 1
  outer loop
    vertex 4.59220118838108 65.9707937713321 91
    vertex 2.34108386419354 65.2879247966287 91
    vertex 134.806578661242 -77.0573481614675 91
  endloop
endfacet
facet normal 0 0 1
  outer loop
    vertex 2.34108386419354 65.2879247966287 91
    vertex 7.34788079488412E-16 65.0573481614675 91
    vertex 134.806578661242 -77.0573481614675 91
  endloop
endfacet
facet normal 0 0 1
  outer loop
    vertex 7.34788079488412E-16 65.0573481614675 91
    vertex -134.806578661242 -77.0573481614675 91
    vertex 134.806578661242 -77.0573481614675 91
  endloop
endfacet
facet normal 0 0 1
  outer loop
    vertex 7.34788079488412E-16 65.0573481614675 91
    vertex -2.34108386419354 65.2879247966287 91
    vertex -134.806578661242 -77.0573481614675 91
  endloop
endfacet
facet normal 0 0 1
  outer loop
    vertex -2.34108386419354 65.2879247966287 91
    vertex -4.59220118838108 65.9707937713321 91
    vertex -134.806578661242 -77.0573481614675 91
  endloop
endfacet
facet normal 0 0 1
  outer loop
    vertex -4.59220118838108 65.9707937713321 91
    vertex -6.66684279623523 67.079712813837 91
    vertex -134.806578661242 -77.0573481614675 91
  endloop
endfacet
facet normal 0 0 1
  outer loop
    vertex -6.66684279623523 67.079712813837 91
    vertex -8.48528137423857 68.5720667872289 91
    vertex -134.806578661242 -77.0573481614675 91
  endloop
endfacet
facet normal 0 0 1
  outer loop
    vertex -8.48528137423857 68.5720667872289 91
    vertex -9.97763534763054 70.3905053652323 91
    vertex -134.806578661242 -77.0573481614675 91
  endloop
endfacet
facet normal 0 0 1
  outer loop
    vertex -9.97763534763054 70.3905053652323 91
    vertex -11.0865543901354 72.4651469730864 91
    vertex -134.806578661242 -77.0573481614675 91
  endloop
endfacet
facet normal 0 0 1
  outer loop
    vertex -11.0865543901354 72.4651469730864 91
    vertex -11.7694233648388 74.716264297274 91
    vertex -134.806578661242 -77.0573481614675 91
  endloop
endfacet
facet normal 0 0 1
  outer loop
    vertex -11.7694233648388 74.716264297274 91
    vertex -12 77.0573481614675 91
    vertex -134.806578661242 -77.0573481614675 91
  endloop
endfacet
facet normal 0 0 1
  outer loop
    vertex -134.806578661242 77.0573481614675 91
    vertex -134.806578661242 -77.0573481614675 91
    vertex -12 77.0573481614675 91
  endloop
endfacet
facet normal 0 0 -1
  outer loop
    vertex -148.057348161468 -77.0573481614675 0
    vertex 148.057348161468 77.0573481614675 0
    vertex 148.057348161468 -77.0573481614675 0
  endloop
endfacet
facet normal 0 0 -1
  outer loop
    vertex 148.057348161468 77.0573481614675 0
    vertex -148.057348161468 -77.0573481614675 0
    vertex -148.057348161468 77.0573481614675 0
  endloop
endfacet
facet normal 1 0 0
  outer loop
    vertex -12 77.0573481614675 91
    vertex -12 77.0573481614675 81.9
    vertex -12 77.8534949995534 81.9
  endloop
endfacet
facet normal .995184726672198 9.80171403295471E-02 0
  outer loop
    vertex -11.7694233648388 74.716264297274 91
    vertex -11.7694233648388 74.716264297274 81.9
    vertex -12 77.0573481614675 81.9
  endloop
endfacet
facet normal .956940335732202 .290284677254486 0
  outer loop
    vertex -11.0865543901354 72.4651469730864 91
    vertex -11.0865543901354 72.4651469730864 81.9
    vertex -11.7694233648388 74.716264297274 81.9
  endloop
endfacet
facet normal .881921264348358 .471396736825992 0
  outer loop
    vertex -9.97763534763054 70.3905053652323 91
    vertex -9.97763534763054 70.3905053652323 81.9
    vertex -11.0865543901354 72.4651469730864 81.9
  endloop
endfacet
facet normal .773010453362746 .634393284163634 0
  outer loop
    vertex -8.48528137423857 68.5720667872289 91
    vertex -8.48528137423857 68.5720667872289 81.9
    vertex -9.97763534763054 70.3905053652323 81.9
  endloop
endfacet
facet normal .634393284163628 .773010453362752 0
  outer loop
    vertex -6.66684279623523 67.079712813837 91
    vertex -6.66684279623523 67.079712813837 81.9
    vertex -8.48528137423857 68.5720667872289 81.9
  endloop
endfacet
facet normal .471396736826001 .881921264348353 0
  outer loop
    vertex -4.59220118838108 65.9707937713321 91
    vertex -4.59220118838108 65.9707937713321 81.9
    vertex -6.66684279623523 67.079712813837 81.9
  endloop
endfacet
facet normal .29028467725449 .9569403357322 0
  outer loop
    vertex -2.34108386419354 65.2879247966287 91
    vertex -2.34108386419354 65.2879247966287 81.9
    vertex -4.59220118838108 65.9707937713321 81.9
  endloop
endfacet
facet normal 9.80171403295457E-02 .995184726672198 0
  outer loop
    vertex 7.34788079488412E-16 65.0573481614675 91
    vertex 7.34788079488412E-16 65.0573481614675 81.9
    vertex -2.34108386419354 65.2879247966287 81.9
  endloop
endfacet
facet normal -9.80171403295457E-02 .995184726672198 0
  outer loop
    vertex 2.34108386419354 65.2879247966287 91
    vertex 2.34108386419354 65.2879247966287 81.9
    vertex 7.34788079488412E-16 65.0573481614675 81.9
  endloop
endfacet
facet normal -.29028467725449 .9569403357322 0
  outer loop
    vertex 4.59220118838108 65.9707937713321 91
    vertex 4.59220118838108 65.9707937713321 81.9
    vertex 2.34108386419354 65.2879247966287 81.9
  endloop
endfacet
facet normal -.471396736826001 .881921264348353 0
  outer loop
    vertex 6.66684279623523 67.079712813837 91
    vertex 6.66684279623523 67.079712813837 81.9
    vertex 4.59220118838108 65.9707937713321 81.9
  endloop
endfacet
facet normal -.634393284163628 .773010453362752 0
  outer loop
    vertex 8.48528137423857 68.5720667872289 91
    vertex 8.48528137423857 68.5720667872289 81.9
    vertex 6.66684279623523 67.079712813837 81.9
  endloop
endfacet
facet normal -.773010453362746 .634393284163634 0
  outer loop
    vertex 9.97763534763054 70.3905053652323 91
    vertex 9.97763534763054 70.3905053652323 81.9
    vertex 8.48528137423857 68.5720667872289 81.9
  endloop
endfacet
facet normal -.881921264348358 .471396736825992 0
  outer loop
    vertex 11.0865543901354 72.4651469730864 91
    vertex 11.0865543901354 72.4651469730864 81.9
    vertex 9.97763534763054 70.3905053652323 81.9
  endloop
endfacet
facet normal -.956940335732202 .290284677254486 0
  outer loop
    vertex 11.7694233648388 74.716264297274 91
    vertex 11.7694233648388 74.716264297274 81.9
    vertex 11.0865543901354 72.4651469730864 81.9
  endloop
endfacet
facet normal -.995184726672198 9.80171403295471E-02 0
  outer loop
    vertex 12 77.0573481614675 91
    vertex 12 77.0573481614675 81.9
    vertex 11.7694233648388 74.716264297274 81.9
  endloop
endfacet
facet normal .995184726672198 9.80171403295471E-02 0
  outer loop
    vertex -11.7694233648388 74.716264297274 91
    vertex -12 77.0573481614675 81.9
    vertex -12 77.0573481614675 91
  endloop
endfacet
facet normal .956940335732202 .290284677254486 0
  outer loop
    vertex -11.0865543901354 72.4651469730864 91
    vertex -11.7694233648388 74.716264297274 81.9
    vertex -11.7694233648388 74.716264297274 91
  endloop
endfacet
facet normal .881921264348358 .471396736825992 0
  outer loop
    vertex -9.97763534763054 70.3905053652323 91
    vertex -11.0865543901354 72.4651469730864 81.9
    vertex -11.0865543901354 72.4651469730864 91
  endloop
endfacet
facet normal .773010453362746 .634393284163634 0
  outer loop
    vertex -8.48528137423857 68.5720667872289 91
    vertex -9.97763534763054 70.3905053652323 81.9
    vertex -9.97763534763054 70.3905053652323 91
  endloop
endfacet
facet normal .634393284163628 .773010453362752 0
  outer loop
    vertex -6.66684279623523 67.079712813837 91
    vertex -8.48528137423857 68.5720667872289 81.9
    vertex -8.48528137423857 68.5720667872289 91
  endloop
endfacet
facet normal .471396736826001 .881921264348353 0
  outer loop
    vertex -4.59220118838108 65.9707937713321 91
    vertex -6.66684279623523 67.079712813837 81.9
    vertex -6.66684279623523 67.079712813837 91
  endloop
endfacet
facet normal .29028467725449 .9569403357322 0
  outer loop
    vertex -2.34108386419354 65.2879247966287 91
    vertex -4.59220118838108 65.9707937713321 81.9
    vertex -4.59220118838108 65.9707937713321 91
  endloop
endfacet
facet normal 9.80171403295457E-02 .995184726672198 0
  outer loop
    vertex 7.34788079488412E-16 65.0573481614675 91
    vertex -2.34108386419354 65.2879247966287 81.9
    vertex -2.34108386419354 65.2879247966287 91
  endloop
endfacet
facet normal -9.80171403295457E-02 .995184726672198 0
  outer loop
    vertex 2.34108386419354 65.2879247966287 91
    vertex 7.34788079488412E-16 65.0573481614675 81.9
    vertex 7.34788079488412E-16 65.0573481614675 91
  endloop
endfacet
facet normal -.29028467725449 .9569403357322 0
  outer loop
    vertex 4.59220118838108 65.9707937713321 91
    vertex 2.34108386419354 65.2879247966287 81.9
    vertex 2.34108386419354 65.2879247966287 91
  endloop
endfacet
facet normal -.471396736826001 .881921264348353 0
  outer loop
    vertex 6.66684279623523 67.079712813837 91
    vertex 4.59220118838108 65.9707937713321 81.9
    vertex 4.59220118838108 65.9707937713321 91
  endloop
endfacet
facet normal -.634393284163628 .773010453362752 0
  outer loop
    vertex 8.48528137423857 68.5720667872289 91
    vertex 6.66684279623523 67.079712813837 81.9
    vertex 6.66684279623523 67.079712813837 91
  endloop
endfacet
facet normal -.773010453362746 .634393284163634 0
  outer loop
    vertex 9.97763534763054 70.3905053652323 91
    vertex 8.48528137423857 68.5720667872289 81.9
    vertex 8.48528137423857 68.5720667872289 91
  endloop
endfacet
facet normal -.881921264348358 .471396736825992 0
  outer loop
    vertex 11.0865543901354 72.4651469730864 91
    vertex 9.97763534763054 70.3905053652323 81.9
    vertex 9.97763534763054 70.3905053652323 91
  endloop
endfacet
facet normal -.956940335732202 .290284677254486 0
  outer loop
    vertex 11.7694233648388 74.716264297274 91
    vertex 11.0865543901354 72.4651469730864 81.9
    vertex 11.0865543901354 72.4651469730864 91
  endloop
endfacet
facet normal -.995184726672198 9.80171403295471E-02 0
  outer loop
    vertex 12 77.0573481614675 91
    vertex 11.7694233648388 74.716264297274 81.9
    vertex 11.7694233648388 74.716264297274 91
  endloop
endfacet
facet normal -1 0 0
  outer loop
    vertex 12 77.0573481614675 91
    vertex 12 77.8534949995534 81.9
    vertex 12 77.0573481614675 81.9
  endloop
endfacet
facet normal 0 0 1
  outer loop
    vertex -12 77.8534949995534 81.9
    vertex -12 77.0573481614675 81.9
    vertex 0 77.8534949995534 81.9
  endloop
endfacet
facet normal 0 0 1
  outer loop
    vertex -12 77.0573481614675 81.9
    vertex -11.7694233648388 74.716264297274 81.9
    vertex 0 77.8534949995534 81.9
  endloop
endfacet
facet normal 0 0 1
  outer loop
    vertex -11.7694233648388 74.716264297274 81.9
    vertex -11.0865543901354 72.4651469730864 81.9
    vertex 0 77.8534949995534 81.9
  endloop
endfacet
facet normal 0 0 1
  outer loop
    vertex -11.0865543901354 72.4651469730864 81.9
    vertex -9.97763534763054 70.3905053652323 81.9
    vertex 0 77.8534949995534 81.9
  endloop
endfacet
facet normal 0 0 1
  outer loop
    vertex -9.97763534763054 70.3905053652323 81.9
    vertex -8.48528137423857 68.5720667872289 81.9
    vertex 0 77.8534949995534 81.9
  endloop
endfacet
facet normal 0 0 1
  outer loop
    vertex -8.48528137423857 68.5720667872289 81.9
    vertex -6.66684279623523 67.079712813837 81.9
    vertex 0 77.8534949995534 81.9
  endloop
endfacet
facet normal 0 0 1
  outer loop
    vertex -6.66684279623523 67.079712813837 81.9
    vertex -4.59220118838108 65.9707937713321 81.9
    vertex 0 77.8534949995534 81.9
  endloop
endfacet
facet normal 0 0 1
  outer loop
    vertex -4.59220118838108 65.9707937713321 81.9
    vertex -2.34108386419354 65.2879247966287 81.9
    vertex 0 77.8534949995534 81.9
  endloop
endfacet
facet normal 0 0 1
  outer loop
    vertex -2.34108386419354 65.2879247966287 81.9
    vertex 7.34788079488412E-16 65.0573481614675 81.9
    vertex 0 77.8534949995534 81.9
  endloop
endfacet
facet normal 0 0 1
  outer loop
    vertex 7.34788079488412E-16 65.0573481614675 81.9
    vertex 2.34108386419354 65.2879247966287 81.9
    vertex 0 77.8534949995534 81.9
  endloop
endfacet
facet normal 0 0 1
  outer loop
    vertex 2.34108386419354 65.2879247966287 81.9
    vertex 4.59220118838108 65.9707937713321 81.9
    vertex 0 77.8534949995534 81.9
  endloop
endfacet
facet normal 0 0 1
  outer loop
    vertex 4.59220118838108 65.9707937713321 81.9
    vertex 6.66684279623523 67.079712813837 81.9
    vertex 0 77.8534949995534 81.9
  endloop
endfacet
facet normal 0 0 1
  outer loop
    vertex 6.66684279623523 67.079712813837 81.9
    vertex 8.48528137423857 68.5720667872289 81.9
    vertex 0 77.8534949995534 81.9
  endloop
endfacet
facet normal 0 0 1
  outer loop
    vertex 8.48528137423857 68.5720667872289 81.9
    vertex 9.97763534763054 70.3905053652323 81.9
    vertex 0 77.8534949995534 81.9
  endloop
endfacet
facet normal 0 0 1
  outer loop
    vertex 9.97763534763054 70.3905053652323 81.9
    vertex 11.0865543901354 72.4651469730864 81.9
    vertex 0 77.8534949995534 81.9
  endloop
endfacet
facet normal 0 0 1
  outer loop
    vertex 11.0865543901354 72.4651469730864 81.9
    vertex 11.7694233648388 74.716264297274 81.9
    vertex 0 77.8534949995534 81.9
  endloop
endfacet
facet normal 0 0 1
  outer loop
    vertex 11.7694233648388 74.716264297274 81.9
    vertex 12 77.0573481614675 81.9
    vertex 0 77.8534949995534 81.9
  endloop
endfacet
facet normal 0 0 1
  outer loop
    vertex 12 77.0573481614675 81.9
    vertex 12 77.8534949995534 81.9
    vertex 0 77.8534949995534 81.9
  endloop
endfacet
facet normal .921118787038764 0 .389281620635032
  outer loop
    vertex 134.806578661242 77.0573481614675 91
    vertex 151.5 -80.5 51.5
    vertex 151.5 80.5 51.5
  endloop
endfacet
facet normal 0 -.996223440096615 8.68265938642476E-02
  outer loop
    vertex 134.806578661242 -77.0573481614675 91
    vertex -151.5 -80.5 51.5
    vertex 151.5 -80.5 51.5
  endloop
endfacet
facet normal -.921118787038764 0 .389281620635032
  outer loop
    vertex -134.806578661242 -77.0573481614675 91
    vertex -151.5 80.5 51.5
    vertex -151.5 -80.5 51.5
  endloop
endfacet
facet normal 1 0 0
  outer loop
    vertex 151.5 80.5 51.5
    vertex 151.5 -80.5 39.5
    vertex 151.5 80.5 39.5
  endloop
endfacet
facet normal 0 -1 0
  outer loop
    vertex 151.5 -80.5 51.5
    vertex -151.5 -80.5 39.5
    vertex 151.5 -80.5 39.5
  endloop
endfacet
facet normal -1 0 0
  outer loop
    vertex -151.5 -80.5 51.5
    vertex -151.5 80.5 39.5
    vertex -151.5 -80.5 39.5
  endloop
endfacet
facet normal .996223440096616 0 -8.68265938642348E-02
  outer loop
    vertex 151.5 80.5 39.5
    vertex 148.057348161468 -77.0573481614675 0
    vertex 148.057348161468 77.0573481614675 0
  endloop
endfacet
facet normal 0 -.996223440096615 -8.68265938642476E-02
  outer loop
    vertex 151.5 -80.5 39.5
    vertex -148.057348161468 -77.0573481614675 0
    vertex 148.057348161468 -77.0573481614675 0
  endloop
endfacet
facet normal -.996223440096616 0 -8.68265938642348E-02
  outer loop
    vertex -151.5 -80.5 39.5
    vertex -148.057348161468 77.0573481614675 0
    vertex -148.057348161468 -77.0573481614675 0
  endloop
endfacet
facet normal .921118787038763 0 .389281620635032
  outer loop
    vertex 134.806578661242 -77.0573481614675 91
    vertex 151.5 -80.5 51.5
    vertex 134.806578661242 77.0573481614675 91
  endloop
endfacet
facet normal 0 -.996223440096615 8.68265938642476E-02
  outer loop
    vertex -134.806578661242 -77.0573481614675 91
    vertex -151.5 -80.5 51.5
    vertex 134.806578661242 -77.0573481614675 91
  endloop
endfacet
facet normal -.921118787038763 0 .389281620635032
  outer loop
    vertex -134.806578661242 77.0573481614675 91
    vertex -151.5 80.5 51.5
    vertex -134.806578661242 -77.0573481614675 91
  endloop
endfacet
facet normal 1 0 0
  outer loop
    vertex 151.5 -80.5 51.5
    vertex 151.5 -80.5 39.5
    vertex 151.5 80.5 51.5
  endloop
endfacet
facet normal 0 -1 0
  outer loop
    vertex -151.5 -80.5 51.5
    vertex -151.5 -80.5 39.5
    vertex 151.5 -80.5 51.5
  endloop
endfacet
facet normal -1 0 0
  outer loop
    vertex -151.5 80.5 51.5
    vertex -151.5 80.5 39.5
    vertex -151.5 -80.5 51.5
  endloop
endfacet
facet normal .996223440096616 0 -8.68265938642348E-02
  outer loop
    vertex 151.5 -80.5 39.5
    vertex 148.057348161468 -77.0573481614675 0
    vertex 151.5 80.5 39.5
  endloop
endfacet
facet normal 0 -.996223440096615 -8.68265938642476E-02
  outer loop
    vertex -151.5 -80.5 39.5
    vertex -148.057348161468 -77.0573481614675 0
    vertex 151.5 -80.5 39.5
  endloop
endfacet
facet normal -.996223440096616 0 -8.68265938642348E-02
  outer loop
    vertex -151.5 80.5 39.5
    vertex -148.057348161468 77.0573481614675 0
    vertex -151.5 -80.5 39.5
  endloop
endfacet
facet normal 0 .996223440096615 -8.68265938642476E-02
  outer loop
    vertex 151.5 80.5 39.5
    vertex 148.057348161468 77.0573481614675 0
    vertex -151.5 80.5 39.5
  endloop
endfacet
facet normal 0 .996223440096615 -8.68265938642476E-02
  outer loop
    vertex 148.057348161468 77.0573481614675 0
    vertex -148.057348161468 77.0573481614675 0
    vertex -151.5 80.5 39.5
  endloop
endfacet
facet normal 0 1 0
  outer loop
    vertex 151.5 80.5 51.5
    vertex 151.5 80.5 39.5
    vertex -151.5 80.5 51.5
  endloop
endfacet
facet normal 0 1 0
  outer loop
    vertex -151.5 80.5 51.5
    vertex 151.5 80.5 39.5
    vertex -151.5 80.5 39.5
  endloop
endfacet
facet normal 0 .996223440096614 8.68265938642476E-02
  outer loop
    vertex 151.5 80.5 51.5
    vertex 12 77.0573481614675 91
    vertex 134.806578661242 77.0573481614675 91
  endloop
endfacet
facet normal 9.39091724217686E-05 .996194693699058 8.71557423633473E-02
  outer loop
    vertex 12 77.0573481614675 91
    vertex 151.5 80.5 51.5
    vertex 12 77.8534949995534 81.9
  endloop
endfacet
facet normal 0 .99623202296066 8.67280602095531E-02
  outer loop
    vertex 151.5 80.5 51.5
    vertex -12 77.8534949995534 81.9
    vertex 12 77.8534949995534 81.9
  endloop
endfacet
facet normal 0 .99623202296066 .086728060209553
  outer loop
    vertex 151.5 80.5 51.5
    vertex -151.5 80.5 51.5
    vertex -12 77.8534949995534 81.9
  endloop
endfacet
facet normal -2.3830065121157E-05 .996222568633533 8.68365889319341E-02
  outer loop
    vertex -134.806578661242 77.0573481614675 91
    vertex -12 77.8534949995534 81.9
    vertex -151.5 80.5 51.5
  endloop
endfacet
facet normal 0 .996194698091745 8.71557427476576E-02
  outer loop
    vertex -134.806578661242 77.0573481614675 91
    vertex -12 77.0573481614675 91
    vertex -12 77.8534949995534 81.9
  endloop
endfacet
facet normal -1 0 0
  outer loop
    vertex -206.5 67.5 10
    vertex -206.5 67.5 0
    vertex -206.5 32.5 0
  endloop
endfacet
facet normal -1 0 0
  outer loop
    vertex -206.5 67.5 10
    vertex -206.5 32.5 0
    vertex -206.5 32.5 10
  endloop
endfacet
facet normal 1 0 0
  outer loop
    vertex -151.5 32.5 50.5
    vertex -151.5 32.5 40.5
    vertex -151.5 67.5 40.5
  endloop
endfacet
facet normal 1 0 0
  outer loop
    vertex -151.5 32.5 50.5
    vertex -151.5 67.5 40.5
    vertex -151.5 67.5 50.5
  endloop
endfacet
facet normal 0 1 0
  outer loop
    vertex -151.5 67.5 40.5
    vertex -160.735576543674 67.5 40.5
    vertex -165.735576543674 67.5 50.5
  endloop
endfacet
facet normal 0 1 0
  outer loop
    vertex -160.735576543674 67.5 40.5
    vertex -176.125 67.5 0
    vertex -181.125 67.5 10
  endloop
endfacet
facet normal 0 1 0
  outer loop
    vertex -176.125 67.5 0
    vertex -206.5 67.5 0
    vertex -206.5 67.5 10
  endloop
endfacet
facet normal 0 1 0
  outer loop
    vertex -151.5 67.5 40.5
    vertex -165.735576543674 67.5 50.5
    vertex -151.5 67.5 50.5
  endloop
endfacet
facet normal 0 1 0
  outer loop
    vertex -160.735576543674 67.5 40.5
    vertex -181.125 67.5 10
    vertex -165.735576543674 67.5 50.5
  endloop
endfacet
facet normal 0 1 0
  outer loop
    vertex -176.125 67.5 0
    vertex -206.5 67.5 10
    vertex -181.125 67.5 10
  endloop
endfacet
facet normal 0 -1 0
  outer loop
    vertex -151.5 32.5 40.5
    vertex -165.735576543674 32.5 50.5
    vertex -160.735576543674 32.5 40.5
  endloop
endfacet
facet normal 0 -1 0
  outer loop
    vertex -160.735576543674 32.5 40.5
    vertex -181.125 32.5 10
    vertex -176.125 32.5 0
  endloop
endfacet
facet normal 0 -1 0
  outer loop
    vertex -176.125 32.5 0
    vertex -206.5 32.5 10
    vertex -206.5 32.5 0
  endloop
endfacet
facet normal 0 -1 0
  outer loop
    vertex -151.5 32.5 40.5
    vertex -151.5 32.5 50.5
    vertex -165.735576543674 32.5 50.5
  endloop
endfacet
facet normal 0 -1 0
  outer loop
    vertex -160.735576543674 32.5 40.5
    vertex -165.735576543674 32.5 50.5
    vertex -181.125 32.5 10
  endloop
endfacet
facet normal 0 -1 0
  outer loop
    vertex -176.125 32.5 0
    vertex -181.125 32.5 10
    vertex -206.5 32.5 10
  endloop
endfacet
facet normal 0 0 1
  outer loop
    vertex -151.5 67.5 50.5
    vertex -165.735576543674 67.5 50.5
    vertex -165.735576543674 32.5 50.5
  endloop
endfacet
facet normal -.934787999231764 0 .355206132396774
  outer loop
    vertex -165.735576543674 67.5 50.5
    vertex -181.125 67.5 10
    vertex -181.125 32.5 10
  endloop
endfacet
facet normal 0 0 1
  outer loop
    vertex -181.125 67.5 10
    vertex -206.5 67.5 10
    vertex -206.5 32.5 10
  endloop
endfacet
facet normal 0 0 1
  outer loop
    vertex -151.5 67.5 50.5
    vertex -165.735576543674 32.5 50.5
    vertex -151.5 32.5 50.5
  endloop
endfacet
facet normal -.934787999231764 0 .355206132396774
  outer loop
    vertex -165.735576543674 67.5 50.5
    vertex -181.125 32.5 10
    vertex -165.735576543674 32.5 50.5
  endloop
endfacet
facet normal 0 0 1
  outer loop
    vertex -181.125 67.5 10
    vertex -206.5 32.5 10
    vertex -181.125 32.5 10
  endloop
endfacet
facet normal 0 0 -1
  outer loop
    vertex -151.5 67.5 40.5
    vertex -160.735576543674 32.5 40.5
    vertex -160.735576543674 67.5 40.5
  endloop
endfacet
facet normal .934787999231764 0 -.355206132396774
  outer loop
    vertex -160.735576543674 67.5 40.5
    vertex -176.125 32.5 0
    vertex -176.125 67.5 0
  endloop
endfacet
facet normal 0 0 -1
  outer loop
    vertex -176.125 67.5 0
    vertex -206.5 32.5 0
    vertex -206.5 67.5 0
  endloop
endfacet
facet normal 0 0 -1
  outer loop
    vertex -151.5 67.5 40.5
    vertex -151.5 32.5 40.5
    vertex -160.735576543674 32.5 40.5
  endloop
endfacet
facet normal .934787999231764 0 -.355206132396774
  outer loop
    vertex -160.735576543674 67.5 40.5
    vertex -160.735576543674 32.5 40.5
    vertex -176.125 32.5 0
  endloop
endfacet
facet normal 0 0 -1
  outer loop
    vertex -176.125 67.5 0
    vertex -176.125 32.5 0
    vertex -206.5 32.5 0
  endloop
endfacet
facet normal -1 0 0
  outer loop
    vertex -206.5 -32.5 10
    vertex -206.5 -32.5 0
    vertex -206.5 -67.5 0
  endloop
endfacet
facet normal -1 0 0
  outer loop
    vertex -206.5 -32.5 10
    vertex -206.5 -67.5 0
    vertex -206.5 -67.5 10
  endloop
endfacet
facet normal 1 0 0
  outer loop
    vertex -151.5 -67.5 50.5
    vertex -151.5 -67.5 40.5
    vertex -151.5 -32.5 40.5
  endloop
endfacet
facet normal 1 0 0
  outer loop
    vertex -151.5 -67.5 50.5
    vertex -151.5 -32.5 40.5
    vertex -151.5 -32.5 50.5
  endloop
endfacet
facet normal 0 1 0
  outer loop
    vertex -151.5 -32.5 40.5
    vertex -160.735576543674 -32.5 40.5
    vertex -165.735576543674 -32.5 50.5
  endloop
endfacet
facet normal 0 1 0
  outer loop
    vertex -160.735576543674 -32.5 40.5
    vertex -176.125 -32.5 0
    vertex -181.125 -32.5 10
  endloop
endfacet
facet normal 0 1 0
  outer loop
    vertex -176.125 -32.5 0
    vertex -206.5 -32.5 0
    vertex -206.5 -32.5 10
  endloop
endfacet
facet normal 0 1 0
  outer loop
    vertex -151.5 -32.5 40.5
    vertex -165.735576543674 -32.5 50.5
    vertex -151.5 -32.5 50.5
  endloop
endfacet
facet normal 0 1 0
  outer loop
    vertex -160.735576543674 -32.5 40.5
    vertex -181.125 -32.5 10
    vertex -165.735576543674 -32.5 50.5
  endloop
endfacet
facet normal 0 1 0
  outer loop
    vertex -176.125 -32.5 0
    vertex -206.5 -32.5 10
    vertex -181.125 -32.5 10
  endloop
endfacet
facet normal 0 -1 0
  outer loop
    vertex -151.5 -67.5 40.5
    vertex -165.735576543674 -67.5 50.5
    vertex -160.735576543674 -67.5 40.5
  endloop
endfacet
facet normal 0 -1 0
  outer loop
    vertex -160.735576543674 -67.5 40.5
    vertex -181.125 -67.5 10
    vertex -176.125 -67.5 0
  endloop
endfacet
facet normal 0 -1 0
  outer loop
    vertex -176.125 -67.5 0
    vertex -206.5 -67.5 10
    vertex -206.5 -67.5 0
  endloop
endfacet
facet normal 0 -1 0
  outer loop
    vertex -151.5 -67.5 40.5
    vertex -151.5 -67.5 50.5
    vertex -165.735576543674 -67.5 50.5
  endloop
endfacet
facet normal 0 -1 0
  outer loop
    vertex -160.735576543674 -67.5 40.5
    vertex -165.735576543674 -67.5 50.5
    vertex -181.125 -67.5 10
  endloop
endfacet
facet normal 0 -1 0
  outer loop
    vertex -176.125 -67.5 0
    vertex -181.125 -67.5 10
    vertex -206.5 -67.5 10
  endloop
endfacet
facet normal 0 0 1
  outer loop
    vertex -151.5 -32.5 50.5
    vertex -165.735576543674 -32.5 50.5
    vertex -165.735576543674 -67.5 50.5
  endloop
endfacet
facet normal -.934787999231764 0 .355206132396774
  outer loop
    vertex -165.735576543674 -32.5 50.5
    vertex -181.125 -32.5 10
    vertex -181.125 -67.5 10
  endloop
endfacet
facet normal 0 0 1
  outer loop
    vertex -181.125 -32.5 10
    vertex -206.5 -32.5 10
    vertex -206.5 -67.5 10
  endloop
endfacet
facet normal 0 0 1
  outer loop
    vertex -151.5 -32.5 50.5
    vertex -165.735576543674 -67.5 50.5
    vertex -151.5 -67.5 50.5
  endloop
endfacet
facet normal -.934787999231764 0 .355206132396774
  outer loop
    vertex -165.735576543674 -32.5 50.5
    vertex -181.125 -67.5 10
    vertex -165.735576543674 -67.5 50.5
  endloop
endfacet
facet normal 0 0 1
  outer loop
    vertex -181.125 -32.5 10
    vertex -206.5 -67.5 10
    vertex -181.125 -67.5 10
  endloop
endfacet
facet normal 0 0 -1
  outer loop
    vertex -151.5 -32.5 40.5
    vertex -160.735576543674 -67.5 40.5
    vertex -160.735576543674 -32.5 40.5
  endloop
endfacet
facet normal .934787999231764 0 -.355206132396774
  outer loop
    vertex -160.735576543674 -32.5 40.5
    vertex -176.125 -67.5 0
    vertex -176.125 -32.5 0
  endloop
endfacet
facet normal 0 0 -1
  outer loop
    vertex -176.125 -32.5 0
    vertex -206.5 -67.5 0
    vertex -206.5 -32.5 0
  endloop
endfacet
facet normal 0 0 -1
  outer loop
    vertex -151.5 -32.5 40.5
    vertex -151.5 -67.5 40.5
    vertex -160.735576543674 -67.5 40.5
  endloop
endfacet
facet normal .934787999231764 0 -.355206132396774
  outer loop
    vertex -160.735576543674 -32.5 40.5
    vertex -160.735576543674 -67.5 40.5
    vertex -176.125 -67.5 0
  endloop
endfacet
facet normal 0 0 -1
  outer loop
    vertex -176.125 -32.5 0
    vertex -176.125 -67.5 0
    vertex -206.5 -67.5 0
  endloop
endfacet
facet normal 1 0 0
  outer loop
    vertex 206.5 -67.5 10
    vertex 206.5 -67.5 0
    vertex 206.5 -32.5 0
  endloop
endfacet
facet normal 1 0 0
  outer loop
    vertex 206.5 -67.5 10
    vertex 206.5 -32.5 0
    vertex 206.5 -32.5 10
  endloop
endfacet
facet normal -1 0 0
  outer loop
    vertex 151.5 -32.5 50.5
    vertex 151.5 -32.5 40.5
    vertex 151.5 -67.5 40.5
  endloop
endfacet
facet normal -1 0 0
  outer loop
    vertex 151.5 -32.5 50.5
    vertex 151.5 -67.5 40.5
    vertex 151.5 -67.5 50.5
  endloop
endfacet
facet normal 0 -1 0
  outer loop
    vertex 151.5 -67.5 40.5
    vertex 160.735576543674 -67.5 40.5
    vertex 165.735576543674 -67.5 50.5
  endloop
endfacet
facet normal 0 -1 0
  outer loop
    vertex 160.735576543674 -67.5 40.5
    vertex 176.125 -67.5 0
    vertex 181.125 -67.5 10
  endloop
endfacet
facet normal 0 -1 0
  outer loop
    vertex 176.125 -67.5 0
    vertex 206.5 -67.5 0
    vertex 206.5 -67.5 10
  endloop
endfacet
facet normal 0 -1 0
  outer loop
    vertex 151.5 -67.5 40.5
    vertex 165.735576543674 -67.5 50.5
    vertex 151.5 -67.5 50.5
  endloop
endfacet
facet normal 0 -1 0
  outer loop
    vertex 160.735576543674 -67.5 40.5
    vertex 181.125 -67.5 10
    vertex 165.735576543674 -67.5 50.5
  endloop
endfacet
facet normal 0 -1 0
  outer loop
    vertex 176.125 -67.5 0
    vertex 206.5 -67.5 10
    vertex 181.125 -67.5 10
  endloop
endfacet
facet normal 0 1 0
  outer loop
    vertex 151.5 -32.5 40.5
    vertex 165.735576543674 -32.5 50.5
    vertex 160.735576543674 -32.5 40.5
  endloop
endfacet
facet normal 0 1 0
  outer loop
    vertex 160.735576543674 -32.5 40.5
    vertex 181.125 -32.5 10
    vertex 176.125 -32.5 0
  endloop
endfacet
facet normal 0 1 0
  outer loop
    vertex 176.125 -32.5 0
    vertex 206.5 -32.5 10
    vertex 206.5 -32.5 0
  endloop
endfacet
facet normal 0 1 0
  outer loop
    vertex 151.5 -32.5 40.5
    vertex 151.5 -32.5 50.5
    vertex 165.735576543674 -32.5 50.5
  endloop
endfacet
facet normal 0 1 0
  outer loop
    vertex 160.735576543674 -32.5 40.5
    vertex 165.735576543674 -32.5 50.5
    vertex 181.125 -32.5 10
  endloop
endfacet
facet normal 0 1 0
  outer loop
    vertex 176.125 -32.5 0
    vertex 181.125 -32.5 10
    vertex 206.5 -32.5 10
  endloop
endfacet
facet normal 0 0 1
  outer loop
    vertex 151.5 -67.5 50.5
    vertex 165.735576543674 -67.5 50.5
    vertex 165.735576543674 -32.5 50.5
  endloop
endfacet
facet normal .934787999231764 0 .355206132396774
  outer loop
    vertex 165.735576543674 -67.5 50.5
    vertex 181.125 -67.5 10
    vertex 181.125 -32.5 10
  endloop
endfacet
facet normal 0 0 1
  outer loop
    vertex 181.125 -67.5 10
    vertex 206.5 -67.5 10
    vertex 206.5 -32.5 10
  endloop
endfacet
facet normal 0 0 1
  outer loop
    vertex 151.5 -67.5 50.5
    vertex 165.735576543674 -32.5 50.5
    vertex 151.5 -32.5 50.5
  endloop
endfacet
facet normal .934787999231764 0 .355206132396774
  outer loop
    vertex 165.735576543674 -67.5 50.5
    vertex 181.125 -32.5 10
    vertex 165.735576543674 -32.5 50.5
  endloop
endfacet
facet normal 0 0 1
  outer loop
    vertex 181.125 -67.5 10
    vertex 206.5 -32.5 10
    vertex 181.125 -32.5 10
  endloop
endfacet
facet normal 0 0 -1
  outer loop
    vertex 151.5 -67.5 40.5
    vertex 160.735576543674 -32.5 40.5
    vertex 160.735576543674 -67.5 40.5
  endloop
endfacet
facet normal -.934787999231764 0 -.355206132396774
  outer loop
    vertex 160.735576543674 -67.5 40.5
    vertex 176.125 -32.5 0
    vertex 176.125 -67.5 0
  endloop
endfacet
facet normal 0 0 -1
  outer loop
    vertex 176.125 -67.5 0
    vertex 206.5 -32.5 0
    vertex 206.5 -67.5 0
  endloop
endfacet
facet normal 0 0 -1
  outer loop
    vertex 151.5 -67.5 40.5
    vertex 151.5 -32.5 40.5
    vertex 160.735576543674 -32.5 40.5
  endloop
endfacet
facet normal -.934787999231764 0 -.355206132396774
  outer loop
    vertex 160.735576543674 -67.5 40.5
    vertex 160.735576543674 -32.5 40.5
    vertex 176.125 -32.5 0
  endloop
endfacet
facet normal 0 0 -1
  outer loop
    vertex 176.125 -67.5 0
    vertex 176.125 -32.5 0
    vertex 206.5 -32.5 0
  endloop
endfacet
facet normal 1 0 0
  outer loop
    vertex 206.5 32.5 10
    vertex 206.5 32.5 0
    vertex 206.5 67.5 0
  endloop
endfacet
facet normal 1 0 0
  outer loop
    vertex 206.5 32.5 10
    vertex 206.5 67.5 0
    vertex 206.5 67.5 10
  endloop
endfacet
facet normal -1 0 0
  outer loop
    vertex 151.5 67.5 50.5
    vertex 151.5 67.5 40.5
    vertex 151.5 32.5 40.5
  endloop
endfacet
facet normal -1 0 0
  outer loop
    vertex 151.5 67.5 50.5
    vertex 151.5 32.5 40.5
    vertex 151.5 32.5 50.5
  endloop
endfacet
facet normal 0 -1 0
  outer loop
    vertex 151.5 32.5 40.5
    vertex 160.735576543674 32.5 40.5
    vertex 165.735576543674 32.5 50.5
  endloop
endfacet
facet normal 0 -1 0
  outer loop
    vertex 160.735576543674 32.5 40.5
    vertex 176.125 32.5 0
    vertex 181.125 32.5 10
  endloop
endfacet
facet normal 0 -1 0
  outer loop
    vertex 176.125 32.5 0
    vertex 206.5 32.5 0
    vertex 206.5 32.5 10
  endloop
endfacet
facet normal 0 -1 0
  outer loop
    vertex 151.5 32.5 40.5
    vertex 165.735576543674 32.5 50.5
    vertex 151.5 32.5 50.5
  endloop
endfacet
facet normal 0 -1 0
  outer loop
    vertex 160.735576543674 32.5 40.5
    vertex 181.125 32.5 10
    vertex 165.735576543674 32.5 50.5
  endloop
endfacet
facet normal 0 -1 0
  outer loop
    vertex 176.125 32.5 0
    vertex 206.5 32.5 10
    vertex 181.125 32.5 10
  endloop
endfacet
facet normal 0 1 0
  outer loop
    vertex 151.5 67.5 40.5
    vertex 165.735576543674 67.5 50.5
    vertex 160.735576543674 67.5 40.5
  endloop
endfacet
facet normal 0 1 0
  outer loop
    vertex 160.735576543674 67.5 40.5
    vertex 181.125 67.5 10
    vertex 176.125 67.5 0
  endloop
endfacet
facet normal 0 1 0
  outer loop
    vertex 176.125 67.5 0
    vertex 206.5 67.5 10
    vertex 206.5 67.5 0
  endloop
endfacet
facet normal 0 1 0
  outer loop
    vertex 151.5 67.5 40.5
    vertex 151.5 67.5 50.5
    vertex 165.735576543674 67.5 50.5
  endloop
endfacet
facet normal 0 1 0
  outer loop
    vertex 160.735576543674 67.5 40.5
    vertex 165.735576543674 67.5 50.5
    vertex 181.125 67.5 10
  endloop
endfacet
facet normal 0 1 0
  outer loop
    vertex 176.125 67.5 0
    vertex 181.125 67.5 10
    vertex 206.5 67.5 10
  endloop
endfacet
facet normal 0 0 1
  outer loop
    vertex 151.5 32.5 50.5
    vertex 165.735576543674 32.5 50.5
    vertex 165.735576543674 67.5 50.5
  endloop
endfacet
facet normal .934787999231764 0 .355206132396774
  outer loop
    vertex 165.735576543674 32.5 50.5
    vertex 181.125 32.5 10
    vertex 181.125 67.5 10
  endloop
endfacet
facet normal 0 0 1
  outer loop
    vertex 181.125 32.5 10
    vertex 206.5 32.5 10
    vertex 206.5 67.5 10
  endloop
endfacet
facet normal 0 0 1
  outer loop
    vertex 151.5 32.5 50.5
    vertex 165.735576543674 67.5 50.5
    vertex 151.5 67.5 50.5
  endloop
endfacet
facet normal .934787999231764 0 .355206132396774
  outer loop
    vertex 165.735576543674 32.5 50.5
    vertex 181.125 67.5 10
    vertex 165.735576543674 67.5 50.5
  endloop
endfacet
facet normal 0 0 1
  outer loop
    vertex 181.125 32.5 10
    vertex 206.5 67.5 10
    vertex 181.125 67.5 10
  endloop
endfacet
facet normal 0 0 -1
  outer loop
    vertex 151.5 32.5 40.5
    vertex 160.735576543674 67.5 40.5
    vertex 160.735576543674 32.5 40.5
  endloop
endfacet
facet normal -.934787999231764 0 -.355206132396774
  outer loop
    vertex 160.735576543674 32.5 40.5
    vertex 176.125 67.5 0
    vertex 176.125 32.5 0
  endloop
endfacet
facet normal 0 0 -1
  outer loop
    vertex 176.125 32.5 0
    vertex 206.5 67.5 0
    vertex 206.5 32.5 0
  endloop
endfacet
facet normal 0 0 -1
  outer loop
    vertex 151.5 32.5 40.5
    vertex 151.5 67.5 40.5
    vertex 160.735576543674 67.5 40.5
  endloop
endfacet
facet normal -.934787999231764 0 -.355206132396774
  outer loop
    vertex 160.735576543674 32.5 40.5
    vertex 160.735576543674 67.5 40.5
    vertex 176.125 67.5 0
  endloop
endfacet
facet normal 0 0 -1
  outer loop
    vertex 176.125 32.5 0
    vertex 176.125 67.5 0
    vertex 206.5 67.5 0
  endloop
endfacet
endsolid SOP-4L_TC-M
